PathFileType	4	(X/Y/Z)	C:/Users/opensim2020/Desktop/walking_exp_matlab/subject06_walking22_straight_03.trc																																																																																																																																		
DataRate	CameraRate	NumFrames	NumMarkers	Units	OrigDataRate	OrigDataStartFrame	OrigNumFrames																																																																																																																														
100	100	5	44	mm	100	1751	77																																																																																																																														
Frame#	Time	LFHD			RFHD			LBHD			RBHD			C7			T10			CLAV			STRN			RBAK			LSHO			LUPA			LELB			LFRM			LWRA			LWRB			LFIN			RSHO			RUPA			RELB			RFRM			RWRA			RWRB			RFIN			LASI			RASI			LPSI			RPSI			LTHI			LKNE			LTIB			LANK			LHEE			LTOE			RTHI			RKNE			RTIB			RANK			RHEE			RTOE			*39			*40			*41			*42			*43		
		X1	Y1	Z1	X2	Y2	Z2	X3	Y3	Z3	X4	Y4	Z4	X5	Y5	Z5	X6	Y6	Z6	X7	Y7	Z7	X8	Y8	Z8	X9	Y9	Z9	X10	Y10	Z10	X11	Y11	Z11	X12	Y12	Z12	X13	Y13	Z13	X14	Y14	Z14	X15	Y15	Z15	X16	Y16	Z16	X17	Y17	Z17	X18	Y18	Z18	X19	Y19	Z19	X20	Y20	Z20	X21	Y21	Z21	X22	Y22	Z22	X23	Y23	Z23	X24	Y24	Z24	X25	Y25	Z25	X26	Y26	Z26	X27	Y27	Z27	X28	Y28	Z28	X29	Y29	Z29	X30	Y30	Z30	X31	Y31	Z31	X32	Y32	Z32	X33	Y33	Z33	X34	Y34	Z34	X35	Y35	Z35	X36	Y36	Z36	X37	Y37	Z37	X38	Y38	Z38	X39	Y39	Z39	X40	Y40	Z40	X41	Y41	Z41	X42	Y42	Z42	X43	Y43	Z43	X44	Y44	Z44
																																																																																																																																					
68	0.67	473.03278	1614.96326	1381.05396	481.46768	1610.72827	1511.9021	337.93088	1567.28162	1393.28088	348.10129	1567.99158	1522.54004	337.02319	1410.75256	1443.42407	299.24652	1080.11011	1438.68079	443.38895	1329.24329	1452.13086	483.48712	1155.72534	1440.41748	253.51009	1239.48621	1507.93604	404.35403	1364.68909	1286.974	429.92517	1168.47559	1206.64685	448.95868	1059.36047	1187.62683	560.71826	963.70374	1180.38696	675.57599	935.49756	1240.46082	646.30139	883.42255	1203.59473	734.30334	868.5567	1211.1322	386.11371	1361.94946	1609.63257	279.42899	1194.13892	1690.82141	243.16135	1079.26526	1715.93335	201.17921	969.2865	1746.48657	190.32373	814.15424	1741.9762	137.87024	846.82446	1767.62048	131.58446	762.38275	1780.79736	467.18884	914.14642	1329.77881	491.96252	936.13867	1548.8114	315.54135	947.65625	1367.29065	336.51303	961.40698	1534.84058	328.36896	606.70801	1291.06982	282.94528	448.58026	1314.65332	78.56803	293.07666	1335.13684	-51.34701	185.83511	1378.19666	-82.72734	207.88773	1426.06006	6.10708	50.7323	1378.17017	530.84137	632.43256	1622.23621	585.43713	522.19006	1592.35217	611.72595	258.91629	1605.67041	626.17554	72.88103	1566.00903	589.41217	47.52565	1522.51709	777.87054	45.17612	1564.854	378.60461	1661.09265	1444.89612	NaN	NaN	NaN	NaN	NaN	NaN	NaN	NaN	NaN	NaN	NaN	NaN
69	0.68	489.21674	1617.3739	1381.78381	498.13565	1612.84033	1512.51782	354.44324	1568.97119	1394.34924	365.0405	1569.35229	1523.51904	354.7399	1412.54688	1443.96106	317.01288	1082.31018	1438.7959	461.20142	1331.125	1452.29004	501.54776	1157.66077	1441.09351	271.7684	1241.48596	1509.17224	422.07352	1366.60803	1287.35645	446.01974	1169.82324	1207.79272	464.67877	1060.40625	1189.63562	574.64014	962.13232	1181.58997	689.31653	931.58423	1240.67078	658.45105	880.00244	1204.38306	746.19885	863.27362	1210.8811	404.63718	1363.82593	1609.95044	300.69086	1194.53491	1692.51367	265.67236	1079.47607	1717.72778	225.41653	968.98358	1748.87134	216.66495	813.85059	1744.72693	163.97978	845.711	1770.76343	158.42366	761.03009	1783.72363	485.79327	915.47467	1331.68176	509.42035	939.44617	1550.03601	334.01352	948.93378	1366.53381	353.16138	963.96613	1534.03772	350.31891	606.31091	1292.78064	308.57919	447.22598	1315.72375	100.11757	298.65112	1335.94702	-33.12523	196.13353	1378.19678	-62.3237	220.11185	1426.4458	13.3053	55.36922	1378.60071	549.19843	636.50043	1623.22302	602.06635	524.74304	1593.25659	619.44189	259.69778	1606.59155	629.54382	73.33463	1566.09387	591.12701	48.68011	1522.88135	780.6571	43.11377	1564.6366	394.84579	1662.85144	1446.09485	NaN	NaN	NaN	NaN	NaN	NaN	NaN	NaN	NaN	NaN	NaN	NaN
70	0.69	505.52618	1620.22986	1382.38806	514.67114	1615.2135	1513.0072	371.16031	1570.86926	1395.09741	381.87982	1570.84326	1524.25403	372.46494	1414.54858	1444.27563	334.3277	1085.03809	1438.90039	479.07068	1333.36096	1452.41711	519.32025	1159.78784	1441.4812	289.81918	1244.00806	1509.87402	439.84915	1368.67236	1287.67529	462.12762	1171.36414	1208.99573	480.03616	1061.82861	1191.6554	587.724	960.65521	1182.9491	702.17053	927.18042	1240.8728	669.57465	876.40546	1205.00806	756.71375	857.16779	1210.7229	423.07327	1366.12939	1610.14954	322.04727	1195.22205	1694.04504	288.60831	1079.93982	1719.44348	250.31049	968.95306	1751.17664	243.97887	813.72437	1747.30969	191.12128	844.75269	1773.95142	187.04683	760.0094	1786.93176	504.02829	917.09705	1333.36609	525.5625	943.02972	1551.33972	352.06149	950.50958	1366.13501	369.44989	966.47455	1533.63147	373.64108	605.72266	1294.42407	335.6282	445.86108	1317.2384	123.71651	303.70972	1336.58728	-12.7997	205.40352	1377.88672	-39.05564	231.24942	1426.45581	22.59879	60.3995	1378.8833	566.35712	639.91431	1624.40564	616.81335	525.96234	1593.91162	628.12769	259.7171	1606.7832	631.87292	73.45779	1565.98242	592.23065	49.24747	1523.40442	782.67999	41.81911	1564.25684	410.94492	1664.81921	1447.07678	NaN	NaN	NaN	NaN	NaN	NaN	NaN	NaN	NaN	NaN	NaN	NaN
71	0.7	521.8606	1623.51953	1382.85535	531.13898	1618.01807	1513.22424	387.78882	1573.05225	1395.58533	398.88779	1572.60095	1524.59839	390.02829	1417.07361	1444.55505	351.39908	1088.03699	1439.04773	496.82022	1335.99182	1452.4032	536.68103	1162.17957	1441.77979	307.74353	1246.99548	1510.07336	457.36514	1371.01306	1287.85193	478.02966	1173.18286	1209.87085	494.97681	1063.42334	1193.45557	600.39526	959.15247	1183.98352	714.15698	922.41754	1240.98486	679.6701	872.53705	1205.60522	766.10724	850.66614	1210.1062	441.41037	1368.82471	1610.20691	343.508	1196.23828	1695.302	311.87753	1080.72766	1721.05005	275.76514	969.14063	1753.33057	272.16721	813.80029	1749.59521	219.15459	843.97955	1776.93323	216.83658	759.1759	1790.08191	521.92224	919.24835	1335.02502	541.07452	946.81995	1552.98279	369.4809	952.40277	1366.30115	385.35699	969.07245	1533.65674	398.21826	605.08722	1296.17908	363.48398	444.81738	1319.33667	149.45169	307.74823	1337.14746	10.34692	212.95905	1377.67419	-13.27617	241.0006	1426.224	33.72142	65.22469	1379.07764	581.67761	642.11084	1625.17163	629.69977	526.58246	1594.79993	636.12469	259.35428	1606.36475	633.00708	73.36114	1565.7666	592.56384	49.57977	1523.60266	783.71643	41.03193	1563.91077	426.92188	1667.08606	1447.78955	NaN	NaN	NaN	NaN	NaN	NaN	NaN	NaN	NaN	NaN	NaN	NaN
72	0.71	538.14514	1627.00415	1382.99146	547.66107	1621.13708	1513.1947	404.5687	1575.53552	1395.77039	415.74698	1574.75403	1524.74561	407.63437	1420.15955	1444.58447	367.78329	1091.40747	1439.52026	514.3266	1338.87207	1452.21509	553.59448	1164.86182	1442.02869	325.22516	1250.56738	1510.24536	474.71863	1373.57007	1287.83496	493.95917	1175.0896	1210.89478	509.33401	1065.06885	1195.08813	612.50568	957.66724	1184.72485	725.23303	917.35681	1240.82629	688.68506	868.45172	1206.09387	774.31818	843.83746	1209.4635	459.6698	1371.9115	1610.16602	364.91852	1197.67908	1696.40051	335.41949	1081.85559	1722.57727	301.73178	969.60223	1755.29089	299.69061	809.87372	1747.38159	247.75888	843.40338	1779.44055	248.26682	758.75769	1793.36133	539.20459	921.86261	1336.5083	556.44794	950.27979	1554.96375	386.2113	954.61584	1366.83325	401.23666	971.83429	1534.03247	422.81821	604.87115	1298.2041	391.83774	444.32813	1321.63696	176.99747	310.89777	1337.87537	35.40405	219.31667	1376.96729	14.70419	249.04303	1425.75293	47.63622	70.24813	1378.73657	594.16461	642.12683	1625.84436	640.79498	526.71582	1595.77588	641.42426	259.0668	1605.43994	633.24854	73.53499	1565.33264	592.51324	49.78276	1523.36938	784.20599	40.48137	1563.58948	442.95889	1669.65186	1448.17151	NaN	NaN	NaN	NaN	NaN	NaN	NaN	NaN	NaN	NaN	NaN	NaN
